<?xml version="1.0" standalone="no"?>
<!DOCTYPE svg PUBLIC "-//W3C//DTD SVG 20010904//EN"
 "http://www.w3.org/TR/2001/REC-SVG-20010904/DTD/svg10.dtd">
<svg version="1.0" xmlns="http://www.w3.org/2000/svg"
 width="9.000000pt" height="20.000000pt" viewBox="0 0 9.000000 20.000000"
 preserveAspectRatio="xMidYMid meet">

<g transform="translate(0.000000,20.000000) scale(0.100000,-0.100000)"
fill="#000000" stroke="none">
<path d="M43 192 c-6 -4 -15 -20 -18 -35 -4 -15 -11 -27 -16 -27 -5 0 -9 -7
-9 -15 0 -8 4 -15 9 -15 6 0 11 -21 13 -47 2 -35 7 -48 18 -48 11 0 16 13 18
48 2 33 7 47 18 47 7 0 14 7 14 15 0 8 -7 15 -15 15 -8 0 -15 7 -15 15 0 8 7
15 15 15 8 0 15 9 15 20 0 20 -24 27 -47 12z"/>
</g>
</svg>
