<?xml version="1.0" standalone="no"?>
<!DOCTYPE svg PUBLIC "-//W3C//DTD SVG 20010904//EN"
 "http://www.w3.org/TR/2001/REC-SVG-20010904/DTD/svg10.dtd">
<svg version="1.0" xmlns="http://www.w3.org/2000/svg"
 width="17.000000pt" height="18.000000pt" viewBox="0 0 17.000000 18.000000"
 preserveAspectRatio="xMidYMid meet">

<g transform="translate(0.000000,18.000000) scale(0.100000,-0.100000)"
fill="#000000" stroke="none">
<path d="M10 155 c0 -8 7 -15 15 -15 8 0 15 7 15 15 0 8 -7 15 -15 15 -8 0
-15 -7 -15 -15z"/>
<path d="M10 65 c0 -42 3 -55 15 -55 12 0 15 13 15 55 0 42 -3 55 -15 55 -12
0 -15 -13 -15 -55z"/>
<path d="M60 65 c0 -48 3 -55 19 -55 16 0 20 8 23 37 4 52 28 56 28 4 0 -34 3
-41 20 -41 17 0 20 7 20 39 0 23 -7 46 -16 55 -19 19 -26 20 -42 4 -9 -9 -12
-9 -12 0 0 7 -9 12 -20 12 -18 0 -20 -7 -20 -55z"/>
</g>
</svg>
