<?xml version="1.0" standalone="no"?>
<!DOCTYPE svg PUBLIC "-//W3C//DTD SVG 20010904//EN"
 "http://www.w3.org/TR/2001/REC-SVG-20010904/DTD/svg10.dtd">
<svg version="1.0" xmlns="http://www.w3.org/2000/svg"
 width="218.000000pt" height="20.000000pt" viewBox="0 0 218.000000 20.000000"
 preserveAspectRatio="xMidYMid meet">

<g transform="translate(0.000000,20.000000) scale(0.100000,-0.100000)"
fill="#000000" stroke="none">
<path d="M43 192 c-6 -4 -15 -20 -18 -35 -4 -15 -11 -27 -16 -27 -5 0 -9 -7
-9 -15 0 -8 4 -15 9 -15 6 0 11 -21 13 -47 2 -35 7 -48 18 -48 11 0 16 13 18
48 2 33 7 47 18 47 7 0 14 7 14 15 0 8 -7 15 -15 15 -8 0 -15 7 -15 15 0 8 7
15 15 15 8 0 15 9 15 20 0 20 -24 27 -47 12z"/>
<path d="M1030 184 c0 -16 -2 -17 -11 -4 -9 12 -10 12 -5 -3 3 -10 6 -28 7
-40 1 -13 5 -5 10 17 5 21 7 41 4 44 -3 3 -5 -3 -5 -14z"/>
<path d="M1490 175 c0 -8 7 -15 15 -15 8 0 15 7 15 15 0 8 -7 15 -15 15 -8 0
-15 -7 -15 -15z"/>
<path d="M562 168 c-7 -7 -12 -18 -12 -25 0 -18 -20 -16 -58 7 l-32 20 2 -33
c1 -17 10 -44 20 -59 23 -34 23 -38 -4 -38 -19 0 -20 -2 -8 -10 23 -15 73 -12
100 7 31 21 42 37 57 86 11 36 10 39 -14 48 -31 12 -37 11 -51 -3z"/>
<path d="M1050 145 c0 -14 3 -25 8 -25 4 0 7 11 7 25 0 14 -3 25 -7 25 -5 0
-8 -11 -8 -25z"/>
<path d="M1073 154 c-3 -9 0 -20 8 -25 23 -14 29 -11 29 16 0 28 -27 35 -37 9z"/>
<path d="M1993 153 c-9 -3 -13 -26 -13 -65 0 -56 1 -59 17 -47 11 10 14 10 9
2 -5 -10 12 -13 74 -13 62 0 79 3 74 13 -5 8 -2 8 9 -2 16 -12 17 -9 17 47 0
45 -4 61 -16 66 -19 7 -153 7 -171 -1z m130 -33 c34 27 38 29 18 7 -24 -27
-24 -27 -5 -49 l19 -23 -26 22 c-19 18 -28 20 -37 11 -9 -9 -15 -9 -24 0 -9 9
-18 7 -37 -11 l-26 -22 19 23 c19 22 19 22 -5 49 -20 22 -16 20 19 -7 l42 -33
43 33z"/>
<path d="M1490 85 c0 -42 3 -55 15 -55 12 0 15 13 15 55 0 42 -3 55 -15 55
-12 0 -15 -13 -15 -55z"/>
<path d="M1540 85 c0 -48 3 -55 19 -55 16 0 20 8 23 37 4 52 28 56 28 4 0 -34
3 -41 20 -41 17 0 20 7 20 39 0 23 -7 46 -16 55 -19 19 -26 20 -42 4 -9 -9
-12 -9 -12 0 0 7 -9 12 -20 12 -18 0 -20 -7 -20 -55z"/>
<path d="M982 98 c-16 -16 -16 -70 0 -86 13 -13 136 -17 154 -4 18 12 25 48
15 76 -10 25 -14 26 -84 26 -43 0 -78 -5 -85 -12z m40 -38 c-2 -17 -5 -30 -7
-30 -2 0 -5 13 -7 30 -3 19 0 30 7 30 7 0 10 -11 7 -30z m84 10 c27 0 30 -9
12 -29 -10 -11 -10 -13 0 -7 6 4 12 3 12 -2 0 -5 -13 -9 -30 -9 -28 0 -30 3
-29 36 0 20 3 30 6 24 2 -7 16 -13 29 -13z m-54 -20 c5 25 5 25 7 -2 1 -19 -4
-28 -14 -28 -10 0 -15 9 -14 28 l1 27 7 -25 8 -25 5 25z"/>
<path d="M1081 44 c0 -11 3 -14 6 -6 3 7 2 16 -1 19 -3 4 -6 -2 -5 -13z"/>
</g>
</svg>
