<?xml version="1.0" standalone="no"?>
<!DOCTYPE svg PUBLIC "-//W3C//DTD SVG 20010904//EN"
 "http://www.w3.org/TR/2001/REC-SVG-20010904/DTD/svg10.dtd">
<svg version="1.0" xmlns="http://www.w3.org/2000/svg"
 width="20.000000pt" height="18.000000pt" viewBox="0 0 20.000000 18.000000"
 preserveAspectRatio="xMidYMid meet">

<g transform="translate(0.000000,18.000000) scale(0.100000,-0.100000)"
fill="#000000" stroke="none">
<path d="M112 158 c-7 -7 -12 -18 -12 -25 0 -18 -20 -16 -58 7 l-32 20 2 -33
c1 -17 10 -44 20 -59 23 -34 23 -38 -4 -38 -19 0 -20 -2 -8 -10 23 -15 73 -12
100 7 31 21 42 37 57 86 11 36 10 39 -14 48 -31 12 -37 11 -51 -3z"/>
</g>
</svg>
