<?xml version="1.0" standalone="no"?>
<!DOCTYPE svg PUBLIC "-//W3C//DTD SVG 20010904//EN"
 "http://www.w3.org/TR/2001/REC-SVG-20010904/DTD/svg10.dtd">
<svg version="1.0" xmlns="http://www.w3.org/2000/svg"
 width="20.000000pt" height="20.000000pt" viewBox="0 0 20.000000 20.000000"
 preserveAspectRatio="xMidYMid meet">

<g transform="translate(0.000000,20.000000) scale(0.100000,-0.100000)"
fill="#000000" stroke="none">
<path d="M70 184 c0 -16 -2 -17 -11 -4 -9 12 -10 12 -5 -3 3 -10 6 -28 7 -40
1 -13 5 -5 10 17 5 21 7 41 4 44 -3 3 -5 -3 -5 -14z"/>
<path d="M90 145 c0 -14 3 -25 8 -25 4 0 7 11 7 25 0 14 -3 25 -7 25 -5 0 -8
-11 -8 -25z"/>
<path d="M113 154 c-3 -9 0 -20 8 -25 23 -14 29 -11 29 16 0 28 -27 35 -37 9z"/>
<path d="M22 98 c-16 -16 -16 -70 0 -86 13 -13 136 -17 154 -4 18 12 25 48 15
76 -10 25 -14 26 -84 26 -43 0 -78 -5 -85 -12z m40 -38 c-2 -17 -5 -30 -7 -30
-2 0 -5 13 -7 30 -3 19 0 30 7 30 7 0 10 -11 7 -30z m84 10 c27 0 30 -9 12
-29 -10 -11 -10 -13 0 -7 6 4 12 3 12 -2 0 -5 -13 -9 -30 -9 -28 0 -30 3 -29
36 0 20 3 30 6 24 2 -7 16 -13 29 -13z m-54 -20 c5 25 5 25 7 -2 1 -19 -4 -28
-14 -28 -10 0 -15 9 -14 28 l1 27 7 -25 8 -25 5 25z"/>
<path d="M121 44 c0 -11 3 -14 6 -6 3 7 2 16 -1 19 -3 4 -6 -2 -5 -13z"/>
</g>
</svg>
